# xmcd
#
# Track frame offsets: 
#        150
#        13127
#        25847
#        39767
#        53047
#        68130
#        81405
#        93310
#        107967
#        121067
#        134027
#        148492
#        160557
#        180277
#        196167
#        216532
#
# Disc length: 3029 seconds
#
# Revision: 2
# Processed by: cddbd v1.5.2PL0 Copyright (c) Steve Scherf et al.
# Submitted via: ExactAudioCopy v0.99pb3
#
DISCID=df0bd310
DTITLE=Various Artist - Hard Times and Heartaches
DYEAR=1994
DGENRE=Blues
TTITLE0=Robert Johnson - Preaching BLues
TTITLE1=Big Bill Broonzy Long Tall Mama
TTITLE2=Blind Boy Fuller - Ain't it a crying shame
TTITLE3=Leadbelly - Packin' Trunk
TTITLE4=Blind Willie Johnson - Dark was the night, Cold was the ground
TTITLE5=Tampa Red - Denver Blues
TTITLE6=Bukka White - Bukka's Jitterbug Swing
TTITLE7=Blind Willie McTell - Southern Can is Mine
TTITLE8=Lonnie Johnson - Steppin' on the blues
TTITLE9=Brownie McGhee - Goodbye Now
TTITLE10=Bessie Smith - St. Louis Blues
TTITLE11=Champion Jach Dupree - Hurry down sunshine
TTITLE12=Son House - Death Letter
TTITLE13=Muddy Waters - I can't be satisfied
TTITLE14=Taj Mahal - Dust my Broom
TTITLE15=Rising Sons featuring Taj Mahal and Ry Cooder - Statesboro Blue
TTITLE15=s
EXTD=1994\n\n\nsubmitted by Stamppot
EXTT0=
EXTT1=
EXTT2=
EXTT3=
EXTT4=
EXTT5=
EXTT6=
EXTT7=
EXTT8=
EXTT9=
EXTT10=
EXTT11=
EXTT12=
EXTT13=
EXTT14=
EXTT15=
PLAYORDER=
